<svg width="25" height="25" viewBox="0 0 25 25" fill="none" xmlns="http://www.w3.org/2000/svg">
<g clip-path="url(#clip0_116_11)">
<path d="M20.3125 10.1562C20.3125 12.3975 19.585 14.4678 18.3594 16.1475L24.541 22.334C25.1514 22.9443 25.1514 23.9355 24.541 24.5459C23.9307 25.1562 22.9395 25.1562 22.3291 24.5459L16.1475 18.3594C14.4678 19.5898 12.3975 20.3125 10.1562 20.3125C4.5459 20.3125 0 15.7666 0 10.1562C0 4.5459 4.5459 0 10.1562 0C15.7666 0 20.3125 4.5459 20.3125 10.1562ZM10.1562 17.1875C14.0381 17.1875 17.1875 14.0381 17.1875 10.1562C17.1875 6.27441 14.0381 3.125 10.1562 3.125C6.27441 3.125 3.125 6.27441 3.125 10.1562C3.125 14.0381 6.27441 17.1875 10.1562 17.1875Z" fill="#1F1D34"/>
</g>
<defs>
<clipPath id="clip0_116_11">
<rect width="25" height="25" fill="white"/>
</clipPath>
</defs>
</svg>
